<?xml version="1.0" encoding="UTF-8"?>
<svg width="24px" height="24px" viewBox="0 0 24 24" version="1.1" xmlns="http://www.w3.org/2000/svg" xmlns:xlink="http://www.w3.org/1999/xlink">
    <!-- Generator: Sketch 57.1 (83088) - https://sketch.com -->
    <title>icon-send</title>
    <desc>Created with Sketch.</desc>
    <g id="Page-1" stroke="none" stroke-width="1" fill="none" fill-rule="evenodd">
        <g id="iPhone-XS" transform="translate(-335.000000, -772.000000)" fill="#D8D8D8" fill-rule="nonzero">
            <path d="M358.243567,772.053744 L335.297794,782.054626 C334.891508,782.248393 334.90401,782.829694 335.316546,783.01096 L341.523343,786.517519 C341.892126,786.723788 342.348416,786.680034 342.667194,786.40501 L354.905773,775.854079 C354.98703,775.785323 355.180797,775.654062 355.255804,775.729068 C355.337061,775.810326 355.21205,775.997842 355.143294,776.079099 L344.55486,788.005151 C344.261084,788.33643 344.217331,788.823973 344.454851,789.199006 L348.511459,795.705829 C348.711477,796.099614 349.280277,796.093364 349.461543,795.693328 L358.949879,772.747556 C359.156147,772.297516 358.687356,771.841226 358.243567,772.053744 Z" id="icon-send"></path>
        </g>
    </g>
</svg>